<svg id="Layer_1" data-name="Layer 1" xmlns="http://www.w3.org/2000/svg" viewBox="0 0 1503.69 893.55"><defs><style>.cls-1,.cls-3{fill:#718351;}.cls-2{fill:#2b3d41;}.cls-3{fill-rule:evenodd;}.cls-4{fill:none;}</style></defs><path class="cls-1" d="M535.12,236.23q12.72,10.35,14.89,20.93t-4.75,17.91q-6.91,7.33-14.89,6.9t-16.18-9.06Q506,264.29,481,260.61T441,266.87q-14.9,9.93-8.85,29.35T487.65,318q49.41,2.37,68.4,27.84t8.41,59.77q-10.58,34.31-41.64,46.82t-71.43,6.05Q411,452,388.82,425.9t-5.18-42.08q17-16,38.19,9.07T479.88,419q36.9,1.08,41.86-27t-39.49-32.58q-44.46-4.53-67.11-17.05t-26.32-42.07q-3.68-29.56,12.3-49.2a79.54,79.54,0,0,1,41-26.76q25-7.12,52.66-2.81T535.12,236.23Z" transform="translate(-208.85 -10.29)"/><path class="cls-1" d="M631.35,226.52q-24.39.22-24,15.32V439.93Q606.53,457.2,632,457t22.87-17.05V241.84Q655.74,226.3,631.35,226.52Z" transform="translate(-208.85 -10.29)"/><path class="cls-1" d="M760.61,368.72q2.14,33.66,27.62,40.57,22,13.38,10.79,33T761.47,452q-48.78-21.13-47.9-69.91L714,152.5q-2.6-23.3,24-22.87T761,152.5Z" transform="translate(-208.85 -10.29)"/><path class="cls-1" d="M1008.76,226.09q25,.21,23.3,14.88V440.79q-.43,16-22.22,16.19T988,440.36V418.78q-32.81,41.43-75.31,37.33T845.84,417.7q-24.39-34.31-20.07-80.48t28.7-72.72Q878.85,238,903,231.91T949.63,230q22.44,4.11,36.25,23.95V241.41Q983.72,225.87,1008.76,226.09ZM955.68,275.5q-18.13-8.19-42.73-1.29t-37.76,39.27q-13.17,32.37-.87,64.09t53.95,30.85q41.64-.85,58.48-45.31V302.69Q973.81,283.7,955.68,275.5Z" transform="translate(-208.85 -10.29)"/><path class="cls-1" d="M1227.13,244.43q-.44-17.7,24.6-17.7t25.46,16.4v211q0,57.82-39.27,81.57t-85,16q-45.75-7.77-62.36-30t.43-35.17q17-12.94,28.7,1.73t40.78,21.14q29.13,6.48,52.44-8.85t19-69.69q-12.09,17.7-46.39,24.16t-65.82-11.86q-31.5-18.35-43.37-61.5t4.53-92.36q16.39-49.2,65.38-60.64T1227.13,244.43Zm-66.68,25.46q-39.06,8.64-42.07,59.56t24.16,72.5q27.2,21.58,86.75-3.88V290.61Q1199.52,261.26,1160.45,269.89Z" transform="translate(-208.85 -10.29)"/><path class="cls-1" d="M1420.26,459.57q-38.19-1.53-69.92-29.78t-33.44-80.92q-1.74-52.65,28.48-88.69t77-37.12q46.82-1.06,76.6,22.88t31.5,86.53q-.42,21.58-19.85,26.32h-146.3q2.16,25,21.79,40.36t48.56,15.32q28.9,0,48.33-22,11.65-16.83,30.43-6t2.8,35.82q-16,19.42-36.9,29.14T1420.26,459.57Zm-19.64-191q-28,9.93-34.95,47.9h118.68q-3.88-38-29.78-47.9T1400.62,268.6Z" transform="translate(-208.85 -10.29)"/><path class="cls-2" d="M388.61,699.7q16,21.59,1.94,35.18T359.69,736q-21.58-24.16-46.82-23.52t-42.73,21.15q-17.47,20.5-15.75,56.75T279,842.12q22.86,15.54,47.69,11.65t33.87-19.85q12.52-18.55,29.14-9.49t8.84,29.77q-12.52,22.45-39.7,35.61t-67.54,6.26q-40.37-6.9-61.5-35.82t-20.93-73.8q.21-44.88,25.46-79t74.23-37.33Q357.53,666.9,388.61,699.7Z" transform="translate(-208.85 -10.29)"/><path class="cls-2" d="M545.69,664.1A110,110,0,0,1,593,676q22.21,11.24,40.35,37.55t17.7,74q-.43,47.69-22.88,74.23t-44.45,34.31q-22,7.77-42.29,7.76t-44.67-7.55q-24.39-7.54-45.53-34.09t-22-73.37Q428.3,742,450.32,712t46.17-39.27A126.86,126.86,0,0,1,545.69,664.1Zm-52.22,62.14q-20.28,20.94-20.07,58.48T494.12,841q20.49,18.78,46.18,18.34t46.18-18.55Q607,822.7,606.54,783.64T585.18,724.3Q564.24,704,539,704.67T493.47,726.24Z" transform="translate(-208.85 -10.29)"/><path class="cls-2" d="M742.49,687.19V707.9q19.43-20.28,49.2-32.8t65.81-3.23q36,9.28,34.74,73.58V881.39q-.87,16.83-23.3,16.62t-22.87-16.19V766.59q6-55.23-35.61-55T743.35,742V882.26q-.44,16-24,16.18T695,881.82V688.05q-.43-19.42,23.52-19.42T742.49,687.19Z" transform="translate(-208.85 -10.29)"/><path class="cls-2" d="M1013.51,592.67V679h72.94q19.41-.43,19.2,21.36t-18.34,21.79h-75.53l-.43,72.51q-1.73,48.33,29.13,55.89t51.14-21.8q11.66-30.63,33.88-20.07t5.4,44.24q-32.81,44.9-74.88,46t-68.4-27q-26.34-28-22-78.55V722.14h-17.7q-18.55.43-19-21.79T947.48,679H966.9V590.51q-.87-20.28,23.31-19.85T1013.51,592.67Z" transform="translate(-208.85 -10.29)"/><path class="cls-2" d="M1221.09,684.6v19q27.62-36.26,60.2-36.69t46.61,13.6q14,14,11.66,27.83T1327,725.6q-10.14,3.45-18.12-5T1282.37,709q-18.55-3.24-40.13,9.06T1222,766.59V881.82q-.43,17.26-23.73,17.48t-24.17-17.48V684.6q-.43-16,23.3-16T1221.09,684.6Z" transform="translate(-208.85 -10.29)"/><path class="cls-2" d="M1670.35,810.62q2.16,33.66,27.62,40.56,22,13.38,10.79,33t-37.55,9.71q-48.76-21.13-47.9-69.92l.43-229.59q-2.6-23.31,24-22.87t23.09,22.87Z" transform="translate(-208.85 -10.29)"/><path class="cls-3" d="M692.92,136l-1.86,12.63a47.76,47.76,0,0,1-43.65,40.71l-12.73,1,1.86-12.64A47.77,47.77,0,0,1,680.19,137Zm-123.37,0,1.85,12.63a47.79,47.79,0,0,0,43.66,40.71l12.73,1-1.85-12.64A47.79,47.79,0,0,0,582.28,137Z" transform="translate(-208.85 -10.29)"/><line class="cls-4" x1="422.57" y1="714.04" x2="422.57"/><path class="cls-2" d="M1462.91,667c-5,.46-8.91.95-11.19,1.38l-2.54.49-.06,9.61,0,9.59-2.52,3.76c-2.93,4.38-4.35,6.19-6.26,8a21.31,21.31,0,0,1-10.73,5.55,22.76,22.76,0,0,1-5.59.4,36.12,36.12,0,0,1-9.09-.92l-2.46-.48-6.64-6.6c-3.65-3.64-6.75-6.62-6.86-6.62a80.74,80.74,0,0,0-7.16,5.78,128.91,128.91,0,0,0-9.64,9.77c-.86,1-2.57,3.09-3.79,4.64l-2.2,2.8,6.33,6.39,6.35,6.36.66,1.58a37.46,37.46,0,0,1,2.78,11.32c.56,9.53-4.64,16.75-16.72,23.21l-1.71.91h-9.28c-7.45,0-9.33,0-9.47.24-.42.49-.93,4.45-1.68,12.78a57.23,57.23,0,0,0,0,8.88c.09,1.11.26,3.4.37,5.11.2,3.06.8,9.55,1,10.86l.11.69h18l1.88.73c8,3.13,13.08,7.88,15.19,14.12,1.76,5.2,1.58,11.38-.55,19.53l-.55,2.09-6.49,6.5-6.49,6.49.51.73a120.57,120.57,0,0,0,12.24,13.84c4.24,4.19,9.73,8.92,10.35,8.92.09,0,3.15-3,6.8-6.64l6.64-6.64,1.82-.22a84.91,84.91,0,0,1,13.66.09c9.53,1.53,15.81,6.17,20.41,15.15l.76,1.48v18.93l.51.11c1.61.33,7.55,1.06,10.59,1.29,2,.15,4.46.37,5.57.46a51,51,0,0,0,8.38,0l5.06-.48c1.8-.16,4.38-.47,5.73-.69l2.46-.38.09-9.82.09-9.82,1-1.93c4.73-9,11.78-13.55,22.53-14.55a72.35,72.35,0,0,1,11.34.25l1.78.24,7.22,7.22,7.22,7.22,2.64-2.11c9.35-7.53,14.08-12.19,19.26-19l1.31-1.73-7.18-7.2c-4-3.95-7.21-7.24-7.21-7.32s-.32-1.73-.7-3.71a42.77,42.77,0,0,1-1.19-10.17,20.17,20.17,0,0,1,1.11-7.6c2.11-5.89,6.41-10.15,14.26-14.17l2.26-1.15,10.55-.09,10.55-.09.29-2.18c1.09-8,1.62-17.3,1.27-22-.58-7.7-1.29-13.57-1.69-14-.14-.19-2.36-.24-10.8-.24h-10.63l-2.41-1.24c-7.26-3.71-11.48-8.13-13.39-14-1.53-4.68-1.57-10.21-.11-18.78l.45-2.62,7.3-7.31c5.49-5.49,7.27-7.38,7.18-7.62a18.63,18.63,0,0,0-1.18-1.87,72.05,72.05,0,0,0-14.72-15.23c-2.25-1.78-7.07-5.35-7.45-5.49-.15-.06-3.08,2.71-7.28,6.89l-7,7-1.51.4a30.83,30.83,0,0,1-8.69,1.24,25.61,25.61,0,0,1-5.41-.2,24.34,24.34,0,0,1-7-2.2c-5.13-2.47-9.15-6.42-13-12.79l-1.07-1.74v-10c0-5.48-.08-10-.15-10l-4.22-.44c-2.25-.25-5.37-.54-6.91-.65s-3.62-.27-4.6-.38A57.37,57.37,0,0,0,1462.91,667Zm13,67.35a50.08,50.08,0,0,1,32.31,18.17,50.59,50.59,0,0,1,9.6,20,49.6,49.6,0,0,1-26.43,55.37,49,49,0,0,1-44.72-.52,49.88,49.88,0,0,1-26.5-39.37,59.84,59.84,0,0,1,.35-11.95,49.65,49.65,0,0,1,37.74-40.77c1.33-.33,3.38-.71,4.52-.87A73.84,73.84,0,0,1,1475.89,734.3Z" transform="translate(-208.85 -10.29)"/></svg>