<svg id="Layer_1" data-name="Layer 1" xmlns="http://www.w3.org/2000/svg" viewBox="0 0 1503.69 774.21"><defs><style>.cls-1,.cls-2{fill:#fff;}.cls-2{fill-rule:evenodd;}</style></defs><path class="cls-1" d="M393.12,139.23q12.72,10.35,14.89,20.93t-4.75,17.91q-6.92,7.34-14.89,6.9t-16.18-9.06q-8.2-8.62-33.23-12.3T299,169.87q-14.9,9.93-8.85,29.35T345.65,221q49.41,2.37,68.4,27.84t8.41,59.77q-10.57,34.31-41.64,46.82t-71.43,6.05Q269,355,246.82,328.9t-5.18-42.08q17-16,38.19,9.07T337.88,322q36.9,1.08,41.86-27t-39.49-32.58q-44.46-4.53-67.11-17.05t-26.32-42.07q-3.67-29.56,12.3-49.2a79.54,79.54,0,0,1,41-26.76q25-7.12,52.66-2.81T393.12,139.23Z" transform="translate(-66.85 -32.62)"/><path class="cls-1" d="M489.35,129.52q-24.39.22-24,15.32V342.93Q464.53,360.2,490,360t22.87-17.05V144.84Q513.74,129.3,489.35,129.52Z" transform="translate(-66.85 -32.62)"/><path class="cls-1" d="M618.61,271.72q2.14,33.66,27.62,40.57,22,13.38,10.79,33T619.47,355q-48.78-21.13-47.9-69.91L572,55.5q-2.6-23.29,24-22.87T619,55.5Z" transform="translate(-66.85 -32.62)"/><path class="cls-1" d="M866.76,129.09q25,.21,23.3,14.88V343.79q-.43,16-22.22,16.19T846,343.36V321.78q-32.81,41.43-75.31,37.33T703.84,320.7q-24.39-34.31-20.07-80.48t28.7-72.72Q736.85,141,761,134.91T807.63,133q22.44,4.11,36.25,23.95V144.41Q841.72,128.87,866.76,129.09ZM813.68,178.5q-18.13-8.19-42.73-1.29t-37.76,39.27q-13.17,32.37-.87,64.09t53.95,30.85q41.64-.85,58.48-45.31V205.69Q831.81,186.7,813.68,178.5Z" transform="translate(-66.85 -32.62)"/><path class="cls-1" d="M1085.13,147.43q-.44-17.7,24.6-17.7t25.46,16.4v211q0,57.82-39.27,81.57t-85,16q-45.75-7.77-62.36-30t.43-35.17q17-12.94,28.7,1.73t40.78,21.14q29.13,6.48,52.44-8.85t19-69.69q-12.09,17.7-46.39,24.16t-65.82-11.86q-31.5-18.35-43.37-61.5t4.53-92.36q16.39-49.2,65.38-60.64T1085.13,147.43Zm-66.68,25.46q-39.06,8.64-42.07,59.56t24.16,72.5q27.19,21.58,86.75-3.88V193.61Q1057.52,164.26,1018.45,172.89Z" transform="translate(-66.85 -32.62)"/><path class="cls-1" d="M1278.26,362.57q-38.19-1.53-69.92-29.78t-33.44-80.92q-1.74-52.65,28.48-88.69t77-37.12q46.82-1.07,76.6,22.88t31.5,86.53q-.42,21.59-19.85,26.32h-146.3q2.16,25,21.79,40.36t48.56,15.32q28.9,0,48.33-22,11.65-16.83,30.43-6t2.8,35.82q-16,19.42-36.9,29.14T1278.26,362.57Zm-19.64-191q-28,9.93-34.95,47.9h118.68q-3.88-38-29.78-47.9T1258.62,171.6Z" transform="translate(-66.85 -32.62)"/><path class="cls-1" d="M246.61,602.7q16,21.59,1.94,35.17T217.69,639q-21.58-24.16-46.82-23.52t-42.73,21.15q-17.47,20.5-15.75,56.75T137,745.12q22.86,15.54,47.69,11.65t33.87-19.85q12.52-18.55,29.14-9.49t8.84,29.77q-12.52,22.45-39.7,35.61t-67.54,6.26q-40.36-6.9-61.5-35.82t-20.93-73.8q.21-44.88,25.46-79t74.23-37.33Q215.52,569.9,246.61,602.7Z" transform="translate(-66.85 -32.62)"/><path class="cls-1" d="M403.69,567.1A110,110,0,0,1,451,579q22.21,11.24,40.35,37.55t17.7,74q-.44,47.69-22.88,74.23t-44.45,34.31q-22,7.77-42.29,7.76t-44.67-7.55q-24.39-7.54-45.53-34.09t-22-73.37Q286.3,645,308.32,615t46.17-39.27A126.86,126.86,0,0,1,403.69,567.1Zm-52.22,62.14q-20.28,20.94-20.07,58.48T352.12,744q20.49,18.78,46.18,18.34t46.18-18.55Q465,725.7,464.54,686.64T443.18,627.3Q422.24,607,397,607.67T351.47,629.24Z" transform="translate(-66.85 -32.62)"/><path class="cls-1" d="M600.49,590.19V610.9q19.43-20.28,49.2-32.8t65.81-3.23q36,9.28,34.74,73.58V784.39q-.87,16.83-23.3,16.62t-22.87-16.19V669.59q6-55.23-35.61-55T601.35,645V785.26q-.44,16-24,16.18T553,784.82V591.05q-.43-19.42,23.52-19.42T600.49,590.19Z" transform="translate(-66.85 -32.62)"/><path class="cls-1" d="M871.51,495.67V582h72.94q19.41-.43,19.2,21.36t-18.34,21.79H869.78l-.43,72.51q-1.73,48.33,29.13,55.89t51.14-21.8q11.65-30.63,33.88-20.07t5.4,44.24q-32.8,44.9-74.88,46t-68.4-27q-26.34-28-22-78.55V625.14h-17.7q-18.55.43-19-21.79T805.48,582H824.9V493.51q-.87-20.28,23.31-19.85T871.51,495.67Z" transform="translate(-66.85 -32.62)"/><path class="cls-1" d="M1079.09,587.6v19q27.62-36.26,60.2-36.69t46.61,13.6q14,14,11.66,27.83T1185,628.6q-10.14,3.45-18.12-5T1140.37,612q-18.55-3.24-40.13,9.06T1080,669.59V784.82q-.43,17.26-23.73,17.48t-24.17-17.48V587.6q-.43-16,23.3-16T1079.09,587.6Z" transform="translate(-66.85 -32.62)"/><path class="cls-1" d="M1528.35,713.62q2.16,33.66,27.62,40.56,22,13.38,10.79,33t-37.55,9.71q-48.76-21.13-47.9-69.92l.43-229.59q-2.6-23.31,24-22.87t23.09,22.87Z" transform="translate(-66.85 -32.62)"/><path class="cls-2" d="M550.92,39l-1.86,12.63a47.76,47.76,0,0,1-43.65,40.71l-12.73,1,1.86-12.64A47.77,47.77,0,0,1,538.19,40ZM427.55,39l1.85,12.63a47.79,47.79,0,0,0,43.66,40.71l12.73,1-1.85-12.64A47.79,47.79,0,0,0,440.28,40Z" transform="translate(-66.85 -32.62)"/><path class="cls-1" d="M1320.91,570c-5,.46-8.91.95-11.19,1.38l-2.54.49-.06,9.61,0,9.59-2.52,3.76c-2.93,4.38-4.35,6.19-6.26,8a21.31,21.31,0,0,1-10.73,5.55,22.76,22.76,0,0,1-5.59.4,36.12,36.12,0,0,1-9.09-.92l-2.46-.48-6.64-6.6c-3.65-3.64-6.75-6.62-6.86-6.62a80.74,80.74,0,0,0-7.16,5.78,128.91,128.91,0,0,0-9.64,9.77c-.86,1-2.57,3.09-3.79,4.64l-2.2,2.8,6.33,6.39,6.35,6.36.66,1.58a37.46,37.46,0,0,1,2.78,11.32c.56,9.53-4.64,16.75-16.72,23.21l-1.71.91h-9.28c-7.45,0-9.33,0-9.47.24-.42.49-.93,4.45-1.68,12.78a57.23,57.23,0,0,0,0,8.88c.09,1.11.26,3.4.37,5.11.2,3.06.8,9.55,1,10.86l.11.69h18l1.88.73c8,3.13,13.08,7.88,15.19,14.12,1.76,5.2,1.58,11.38-.55,19.53l-.55,2.09-6.49,6.5-6.49,6.49.51.73a120.57,120.57,0,0,0,12.24,13.84c4.24,4.19,9.73,8.92,10.35,8.92.09,0,3.15-3,6.8-6.64l6.64-6.64,1.82-.22a84.91,84.91,0,0,1,13.66.09c9.53,1.53,15.81,6.17,20.41,15.15l.76,1.48v18.93l.51.11c1.61.33,7.55,1.06,10.59,1.29,2,.15,4.46.37,5.57.46a51,51,0,0,0,8.38,0l5.06-.48c1.8-.16,4.38-.47,5.73-.69l2.46-.38.09-9.82.09-9.82,1-1.93c4.73-9,11.78-13.55,22.53-14.55a72.35,72.35,0,0,1,11.34.25l1.78.24,7.22,7.22,7.22,7.22,2.64-2.11c9.35-7.53,14.08-12.19,19.26-19l1.31-1.73-7.18-7.2c-4-3.95-7.21-7.24-7.21-7.32s-.32-1.73-.7-3.71a42.77,42.77,0,0,1-1.19-10.17,20.17,20.17,0,0,1,1.11-7.6c2.11-5.89,6.41-10.15,14.26-14.17l2.26-1.15,10.55-.09,10.55-.09.29-2.18c1.09-8,1.62-17.3,1.27-22-.58-7.7-1.29-13.57-1.69-14-.14-.19-2.36-.24-10.8-.24h-10.63l-2.41-1.24c-7.26-3.71-11.48-8.13-13.39-14-1.53-4.68-1.57-10.21-.11-18.78l.45-2.62,7.3-7.31c5.49-5.49,7.27-7.38,7.18-7.62a18.63,18.63,0,0,0-1.18-1.87,72.05,72.05,0,0,0-14.72-15.23c-2.25-1.78-7.07-5.35-7.45-5.49-.15-.06-3.08,2.71-7.28,6.89l-7,7-1.51.4a30.83,30.83,0,0,1-8.69,1.24,25.61,25.61,0,0,1-5.41-.2,24.34,24.34,0,0,1-7-2.2c-5.13-2.47-9.15-6.42-13-12.79l-1.07-1.74v-10c0-5.48-.08-10-.15-10l-4.22-.44c-2.25-.25-5.37-.54-6.91-.65s-3.62-.27-4.6-.38A57.37,57.37,0,0,0,1320.91,570Zm13,67.35a50.08,50.08,0,0,1,32.31,18.17,50.59,50.59,0,0,1,9.6,20,49.6,49.6,0,0,1-26.43,55.37,49,49,0,0,1-44.72-.52,49.88,49.88,0,0,1-26.5-39.37,59.84,59.84,0,0,1,.35-11.95,49.65,49.65,0,0,1,37.74-40.77c1.33-.33,3.38-.71,4.52-.87A73.84,73.84,0,0,1,1333.89,637.3Z" transform="translate(-66.85 -32.62)"/></svg>