<svg xmlns="http://www.w3.org/2000/svg" width="275" height="68" viewBox="0 0 275 68">
    <g fill="none" fill-rule="evenodd">
        <path fill="#718351" fill-rule="nonzero" d="M14.477 53.878c2.395 0 4.574-.408 6.537-1.222 1.964-.814 3.532-1.987 4.706-3.52 1.173-1.532 1.76-3.352 1.76-5.46 0-1.82-.324-3.328-.97-4.525-.647-1.197-1.509-2.191-2.586-2.981-1.078-.79-2.323-1.449-3.736-1.976-1.413-.527-2.885-.981-4.418-1.365-1.82-.479-3.46-1.005-4.92-1.58-1.461-.575-2.635-1.293-3.52-2.155-.887-.862-1.377-1.988-1.473-3.376 0-1.485.407-2.682 1.221-3.592.814-.91 1.832-1.593 3.053-2.048 1.221-.455 2.526-.682 3.915-.682 1.82 0 3.52.335 5.1 1.006 1.581.67 2.946 1.652 4.095 2.945.336.383.755.575 1.257.575.503 0 .946-.144 1.33-.431.478-.431.718-.922.718-1.473 0-.55-.216-1.042-.647-1.473-1.053-1.245-2.25-2.227-3.592-2.945-1.34-.718-2.705-1.233-4.094-1.544-1.39-.312-2.682-.467-3.88-.467-2.394 0-4.537.43-6.429 1.293-1.892.862-3.388 2.059-4.49 3.591-1.101 1.533-1.652 3.305-1.652 5.316 0 1.724.36 3.185 1.078 4.382.718 1.198 1.664 2.215 2.837 3.053 1.174.839 2.526 1.533 4.059 2.084 1.533.55 3.113 1.041 4.741 1.472 1.533.384 2.981.839 4.346 1.365 1.365.527 2.479 1.245 3.34 2.155.863.91 1.294 2.108 1.294 3.592 0 1.437-.431 2.622-1.293 3.556-.862.934-1.952 1.628-3.269 2.083-1.317.455-2.646.683-3.987.683-2.538 0-4.729-.515-6.573-1.545-1.844-1.03-3.412-2.382-4.705-4.058-.431-.431-.898-.67-1.4-.719-.504-.048-.947.096-1.33.431-.575.336-.874.778-.898 1.33-.024.55.156 1.113.539 1.687 1.868 2.347 4.01 4.023 6.43 5.029 2.418 1.006 4.92 1.509 7.506 1.509zm24.674-43.163c.958 0 1.688-.228 2.19-.683.504-.455.755-1.113.755-1.975v-.719c0-.862-.251-1.52-.754-1.975-.503-.455-1.21-.683-2.12-.683-.957 0-1.711.228-2.262.683-.55.455-.826 1.113-.826 1.975v.719c0 .862.251 1.52.754 1.975.503.455 1.257.683 2.263.683zm-.036 42.444c.575 0 1.078-.215 1.509-.646.43-.431.646-.934.646-1.509V17.96c0-.575-.203-1.077-.61-1.508-.408-.431-.922-.647-1.545-.647-.623 0-1.137.216-1.545.647-.407.43-.61.933-.61 1.508v33.045c0 .575.203 1.078.61 1.509.408.43.922.646 1.545.646zm16.682 0c.575 0 1.077-.215 1.508-.646.431-.431.647-.934.647-1.509V2.155c0-.575-.204-1.077-.61-1.508C56.933.216 56.418 0 55.796 0c-.575 0-1.078.216-1.509.647-.43.43-.646.933-.646 1.508v48.85c0 .574.203 1.077.61 1.508.407.43.922.646 1.545.646zm29.684.719c3.448 0 6.537-.827 9.267-2.479 2.73-1.652 4.897-3.927 6.501-6.824 1.605-2.898 2.407-6.166 2.407-9.806 0-3.688-.802-6.968-2.407-9.842-1.604-2.873-3.771-5.148-6.501-6.824-2.73-1.676-5.819-2.514-9.267-2.514-3.4 0-6.477.838-9.23 2.514-2.755 1.676-4.934 3.95-6.538 6.824-1.604 2.874-2.407 6.154-2.407 9.842 0 3.64.803 6.908 2.407 9.806 1.604 2.897 3.783 5.172 6.537 6.824 2.754 1.652 5.83 2.479 9.231 2.479zm0-4.023c-2.634 0-4.993-.659-7.076-1.976-2.083-1.317-3.735-3.1-4.957-5.352-1.22-2.25-1.831-4.837-1.831-7.758 0-2.921.61-5.52 1.831-7.794 1.222-2.275 2.874-4.071 4.957-5.388 2.083-1.317 4.442-1.976 7.076-1.976 2.682 0 5.065.659 7.148 1.976 2.083 1.317 3.723 3.113 4.92 5.388 1.198 2.275 1.797 4.873 1.797 7.794 0 2.921-.6 5.507-1.796 7.758-1.198 2.251-2.838 4.035-4.921 5.352-2.083 1.317-4.466 1.976-7.148 1.976z"/>
        <path fill="#2B3D41" fill-rule="nonzero" d="M115.866 53.16c.574 0 1.077-.216 1.508-.647.431-.431.647-.934.647-1.509V2.155c0-.575-.204-1.077-.61-1.508-.408-.431-.923-.647-1.545-.647-.575 0-1.078.216-1.509.647-.43.43-.646.933-.646 1.508v48.85c0 .574.203 1.077.61 1.508.407.43.922.646 1.545.646zm25.805 14.367c3.304 0 6.25-.683 8.836-2.048 2.586-1.365 4.645-3.376 6.178-6.034 1.532-2.658 2.299-5.927 2.299-9.806V17.96c0-.575-.204-1.077-.611-1.508-.407-.431-.922-.647-1.545-.647-.622 0-1.137.216-1.544.647-.407.43-.61.933-.61 1.508v21.408c0 1.82-.551 3.532-1.653 5.136-1.101 1.604-2.514 2.897-4.238 3.879-1.724.982-3.616 1.473-5.675 1.473-3.305 0-5.687-.91-7.148-2.73-1.46-1.82-2.191-4.406-2.191-7.758V17.959c0-.575-.204-1.077-.61-1.508-.408-.431-.923-.647-1.545-.647-.67 0-1.198.216-1.58.647-.384.43-.575.933-.575 1.508v22.054c0 2.778.455 5.196 1.365 7.256.91 2.059 2.31 3.675 4.202 4.849 1.892 1.173 4.274 1.76 7.148 1.76 1.915 0 3.723-.324 5.423-.97 1.7-.647 3.21-1.545 4.526-2.694 1.024-.894 1.868-1.89 2.53-2.986l.02-.035v2.518c0 2.668-.454 4.996-1.362 6.983l-.218.452c-1.054 2.083-2.55 3.688-4.49 4.813-1.94 1.126-4.226 1.688-6.86 1.688-1.964 0-3.712-.323-5.244-.97-1.533-.646-2.706-1.16-3.52-1.544-.527-.287-1.042-.311-1.545-.072-.503.24-.874.67-1.113 1.293-.24.527-.216 1.042.072 1.545.287.503.718.922 1.293 1.257 1.101.67 2.526 1.233 4.274 1.688 1.748.455 3.652.683 5.71.683zm40.01-14.368c1.054 0 1.964-.227 2.73-.682.767-.455 1.15-1.018 1.15-1.688 0-.527-.156-.958-.467-1.293-.311-.336-.682-.503-1.114-.503-.383 0-.73.06-1.041.18l-.24.078c-.247.067-.514.1-.802.1-.574 0-1.15-.107-1.724-.322-.575-.216-1.041-.659-1.4-1.33-.36-.67-.54-1.676-.54-3.017V20.617h7.184c.493 0 .915-.14 1.267-.422l.17-.153c.383-.383.575-.838.575-1.364 0-.575-.192-1.066-.575-1.473-.383-.407-.862-.61-1.437-.61h-7.184V8.62c0-.492-.149-.932-.448-1.319l-.162-.19c-.407-.43-.922-.646-1.545-.646-.622 0-1.137.216-1.544.647-.407.43-.61.934-.61 1.508l-.001 7.975h-5.244c-.492 0-.923.14-1.293.422l-.18.152c-.406.383-.61.862-.61 1.437 0 .527.204.993.61 1.4.408.408.899.611 1.473.611h5.244v24.281c0 1.99.255 3.55.765 4.683l.133.274c.599 1.15 1.353 1.951 2.263 2.406.91.455 1.796.719 2.658.79.862.072 1.509.108 1.94.108zm16.52 0c.576 0 1.078-.215 1.51-.646.43-.431.646-.934.646-1.509V17.96c0-.575-.204-1.077-.61-1.508-.408-.431-.923-.647-1.545-.647-.623 0-1.138.216-1.545.647-.407.43-.61.933-.61 1.508v33.045c0 .575.203 1.078.61 1.509.407.43.922.646 1.545.646zm29.613.719c2.586 0 4.861-.348 6.825-1.042 1.963-.695 3.508-1.509 4.633-2.443 1.126-.933 1.688-1.783 1.688-2.55 0-.574-.167-1.041-.502-1.4-.336-.36-.79-.54-1.365-.54-.67 0-1.21.252-1.617.755-.407.503-1.09 1.018-2.047 1.544-.718.431-1.616.815-2.694 1.15-1.077.335-2.574.503-4.49.503-2.777 0-5.232-.659-7.363-1.976-2.131-1.317-3.783-3.125-4.957-5.423-1.173-2.3-1.76-4.885-1.76-7.759 0-2.825.623-5.376 1.868-7.65 1.245-2.275 2.945-4.083 5.1-5.424 2.156-1.341 4.574-2.012 7.256-2.012 1.437 0 2.742.12 3.915.36s2.071.502 2.694.79c.67.335 1.173.694 1.509 1.077.335.383.682.719 1.041 1.006.36.287.85.431 1.473.431.527 0 .97-.227 1.329-.682.36-.455.539-.922.539-1.401 0-1.006-.587-1.94-1.76-2.802-1.174-.862-2.718-1.544-4.634-2.047-1.915-.503-4.023-.754-6.321-.754-3.688 0-6.897.874-9.627 2.622-2.73 1.748-4.86 4.058-6.393 6.932-1.533 2.873-2.299 6.058-2.299 9.554 0 3.64.754 6.908 2.263 9.806 1.509 2.897 3.616 5.184 6.322 6.86 2.706 1.676 5.83 2.515 9.374 2.515zm33.995 0c2.394 0 4.573-.408 6.537-1.222 1.964-.814 3.532-1.987 4.705-3.52 1.174-1.532 1.76-3.352 1.76-5.46 0-1.82-.323-3.328-.97-4.525-.646-1.197-1.508-2.191-2.586-2.981-1.077-.79-2.322-1.449-3.735-1.976-1.413-.527-2.886-.981-4.418-1.365-1.82-.479-3.46-1.005-4.92-1.58-1.462-.575-2.635-1.293-3.52-2.155-.887-.862-1.378-1.988-1.474-3.376 0-1.485.408-2.682 1.222-3.592.814-.91 1.832-1.593 3.053-2.048 1.22-.455 2.526-.682 3.915-.682 1.82 0 3.52.335 5.1 1.006 1.58.67 2.946 1.652 4.095 2.945.335.383.754.575 1.257.575.503 0 .946-.144 1.33-.431.478-.431.717-.922.717-1.473 0-.55-.215-1.042-.646-1.473-1.054-1.245-2.251-2.227-3.592-2.945-1.34-.718-2.706-1.233-4.095-1.544-1.388-.312-2.682-.467-3.879-.467-2.394 0-4.538.43-6.43 1.293-1.89.862-3.388 2.059-4.489 3.591-1.102 1.533-1.652 3.305-1.652 5.316 0 1.724.359 3.185 1.077 4.382.719 1.198 1.665 2.215 2.838 3.053 1.173.839 2.526 1.533 4.059 2.084 1.532.55 3.113 1.041 4.74 1.472 1.533.384 2.982.839 4.347 1.365 1.365.527 2.478 1.245 3.34 2.155.862.91 1.293 2.108 1.293 3.592 0 1.437-.43 2.622-1.293 3.556-.862.934-1.951 1.628-3.268 2.083-1.317.455-2.646.683-3.987.683-2.538 0-4.73-.515-6.573-1.545-1.844-1.03-3.412-2.382-4.705-4.058-.432-.431-.898-.67-1.401-.719-.503-.048-.946.096-1.33.431-.574.336-.873.778-.897 1.33-.024.55.155 1.113.539 1.687 1.867 2.347 4.01 4.023 6.429 5.029 2.418 1.006 4.92 1.509 7.507 1.509z"/>
        <path fill="#718351" d="M207.746 2.46l-.287 1.954c-.501 3.421-3.307 6.037-6.754 6.299l-1.97.15.287-1.955c.502-3.42 3.307-6.037 6.754-6.298l1.97-.15zM188.658 2.46l.286 1.954c.502 3.421 3.308 6.037 6.755 6.299l1.97.15-.287-1.955c-.502-3.42-3.307-6.037-6.755-6.298l-1.969-.15z"/>
    </g>
</svg>
